HIERARCHY
ROOT Hips
{
	OFFSET 0.000000 0.000000 0.000000 
	CHANNELS 6 Xposition Yposition Zposition Zrotation Yrotation Xrotation
	JOINT LeftUpLeg
	{
		OFFSET 1.363060 -1.794630 0.839290 
		CHANNELS 3 Zrotation Yrotation Xrotation
		JOINT LeftLeg
		{
			OFFSET 2.448110 -6.726130 0.000000 
			CHANNELS 3 Zrotation Yrotation Xrotation
			JOINT LeftFoot
			{
				OFFSET 2.562200 -7.039590 0.000000 
				CHANNELS 3 Zrotation Yrotation Xrotation
				JOINT LeftToeBase
				{
					OFFSET 0.157640 -0.433110 2.322550 
					CHANNELS 3 Zrotation Yrotation Xrotation
					End Site
					{
						OFFSET 0.000000 0.000000 0.000000 
					}
				}
			}
		}
	}
	JOINT RightUpLeg
	{
		OFFSET -1.305520 -1.794630 0.839290 
		CHANNELS 3 Zrotation Yrotation Xrotation
		JOINT RightLeg
		{
			OFFSET -2.542530 -6.985550 0.000000 
			CHANNELS 3 Zrotation Yrotation Xrotation
			JOINT RightFoot
			{
				OFFSET -2.568260 -7.056230 0.000000 
				CHANNELS 3 Zrotation Yrotation Xrotation
				JOINT RightToeBase
				{
					OFFSET -0.164730 -0.452590 2.363150 
					CHANNELS 3 Zrotation Yrotation Xrotation
					End Site
					{
						OFFSET 0.000000 0.000000 0.000000 
					}
				}
			}
		}
	}
	JOINT Spine
	{
		OFFSET 0.028270 2.035590 -0.193380 
		CHANNELS 3 Zrotation Yrotation Xrotation
		JOINT Spine1
		{
			OFFSET 0.056720 2.048850 -0.042750 
			CHANNELS 3 Zrotation Yrotation Xrotation
			JOINT Neck1
			{
				OFFSET -0.054170 1.746240 0.172020 
				CHANNELS 3 Zrotation Yrotation Xrotation
				JOINT Head
				{
					OFFSET 0.104070 1.761360 -0.123970 
					CHANNELS 3 Zrotation Yrotation Xrotation
					End Site
					{
						OFFSET 0.000000 0.000000 0.000000 
					}
				}
			}
			JOINT LeftArm
			{
				OFFSET 3.362410 1.200890 -0.311210 
				CHANNELS 3 Zrotation Yrotation Xrotation
				JOINT LeftForeArm
				{
					OFFSET 4.983000 -0.000000 -0.000000 
					CHANNELS 3 Zrotation Yrotation Xrotation
					JOINT LeftHand
					{
						OFFSET 3.483560 -0.000000 -0.000000 
						CHANNELS 3 Zrotation Yrotation Xrotation
						JOINT LeftHandIndex1
						{
							OFFSET 0.715260 -0.000000 -0.000000 
							CHANNELS 3 Zrotation Yrotation Xrotation
							End Site
							{
								OFFSET 0.000000 0.000000 0.000000 
							}
						}
					}
				}
			}
			JOINT RightArm
			{
				OFFSET -3.136600 1.374050 -0.404650 
				CHANNELS 3 Zrotation Yrotation Xrotation
				JOINT RightForeArm
				{
					OFFSET -5.241900 -0.000000 -0.000000 
					CHANNELS 3 Zrotation Yrotation Xrotation
					JOINT RightHand
					{
						OFFSET -3.444170 -0.000000 -0.000000 
						CHANNELS 3 Zrotation Yrotation Xrotation
						JOINT RightHandIndex1
						{
							OFFSET -0.622530 -0.000000 -0.000000 
							CHANNELS 3 Zrotation Yrotation Xrotation
							End Site
							{
								OFFSET 0.000000 0.000000 0.000000 
							}
						}
					}
				}
			}
		}
	}
}
MOTION
Frames: 7
Frame Time: 0.041667
25.332738 17.303731 -32.625536 -1.356017 -15.046171 1.317291 -2.401958 -11.686401 0.803631 0.230936 8.438292 25.508295 2.024704 -3.291200 -7.892320 4.363800 -12.629400 -37.996700 13.662518 11.384117 -13.800799 -3.323808 -13.080054 39.110007 -1.761643 1.588792 -14.149303 -0.617000 5.027000 -13.985600 2.086033 -4.931491 -4.480293 2.209635 -1.737216 -8.283392 -4.111271 19.549220 -8.897896 -12.960300 5.554500 -8.746100 -74.380732 -0.771812 14.986744 142.470385 -44.568269 -106.890485 1.124997 -0.485378 -54.637038 -7.125000 0.000000 0.000000 71.578968 -18.081616 24.901210 -129.853526 51.008369 -98.726971 -1.706506 2.268398 -30.206797 7.125000 0.000000 0.000000 
25.338400 17.269448 -32.630684 -1.501241 -14.924269 1.300890 -2.293548 -11.803497 0.875087 0.237654 8.441162 25.505012 2.087588 -3.433346 -8.094725 4.207000 -12.430900 -37.273900 13.837534 11.366056 -13.998623 -3.453791 -13.227457 39.624350 -1.778422 1.566470 -14.440829 -0.644800 5.137000 -14.299700 2.128481 -5.132351 -4.491797 2.365932 -1.828675 -8.332023 -4.046912 19.780264 -8.929806 -12.885000 5.660400 -8.776700 -74.101474 -1.968119 14.726490 142.388270 -44.541886 -106.831694 1.136633 -0.482214 -54.102110 -7.125000 0.000000 0.000000 71.265458 -17.550057 24.696654 -130.568577 50.626985 -99.209810 -1.717637 2.251245 -29.812551 7.125000 0.000000 0.000000 
25.347769 17.247519 -32.630993 -1.529985 -15.216000 1.402583 -2.367262 -11.558214 0.719692 0.220560 8.475674 25.617348 1.760027 -2.166044 -8.865081 4.765100 -13.114200 -39.797700 13.810736 11.671850 -14.262840 -3.555320 -13.346037 39.991186 -1.883453 1.876032 -14.659769 -0.570900 4.838700 -13.449100 2.135718 -5.101195 -4.474471 2.449029 -1.803589 -8.232320 -4.025836 20.073383 -9.269219 -12.842500 5.703900 -9.077500 -73.825823 -3.136869 14.410907 142.190789 -44.625629 -106.722736 1.143277 -0.479659 -54.036126 -7.125000 0.000000 0.000000 71.004574 -16.774090 24.342767 -131.138964 50.309061 -99.615937 -1.725093 2.253225 -29.180226 7.125000 0.000000 0.000000 
25.360947 17.231768 -32.632125 -1.559539 -15.874482 1.569463 -2.489799 -11.182078 0.569994 0.216927 8.511816 25.748624 1.515865 -1.213420 -9.589872 4.983900 -13.365700 -40.753300 13.752877 12.198482 -14.615269 -3.640979 -13.456073 40.308322 -1.957874 2.118766 -14.768659 -0.544600 4.728200 -13.134800 2.141885 -4.940733 -4.454309 2.430541 -1.736838 -8.019660 -4.093251 20.194320 -9.251837 -12.975100 5.719700 -9.009000 -73.646154 -4.126425 14.229192 142.357466 -44.444540 -106.819658 1.114695 -0.437048 -54.730467 -7.125000 0.000000 0.000000 70.699706 -15.925194 23.871606 -131.683023 49.974397 -100.074824 -1.727560 2.291940 -28.527807 7.125000 0.000000 0.000000 
25.373507 17.212001 -32.632331 -1.500964 -16.224602 1.613505 -2.644653 -11.048782 0.566531 0.247140 8.574342 25.944331 1.545282 -1.168481 -10.185408 4.886300 -13.254600 -40.329100 13.611436 12.314619 -14.930528 -3.703574 -13.541438 40.556526 -1.940267 2.037741 -14.830240 -0.650100 5.157700 -14.358800 2.160079 -4.928016 -4.436157 2.506718 -1.737500 -7.805507 -4.183015 20.325535 -9.252574 -13.053900 5.755100 -8.906900 -73.562167 -5.125508 14.103203 142.939700 -43.938651 -107.129238 1.081109 -0.388638 -56.095483 -7.125000 0.000000 0.000000 70.361390 -14.979019 23.473384 -132.223368 49.628182 -100.523096 -1.729046 2.325471 -28.220771 7.125000 0.000000 0.000000 
25.387096 17.197999 -32.628110 -1.543603 -16.246654 1.604472 -2.639593 -11.056157 0.585404 0.328773 8.641888 26.140442 1.968691 -2.435244 -10.455300 4.255600 -12.492900 -37.498900 13.614519 12.254677 -15.063519 -3.752711 -13.600112 40.751078 -1.931531 1.965957 -14.954377 -0.703200 5.359900 -14.937800 2.189881 -5.007731 -4.449587 2.716646 -1.736643 -7.978883 -4.287740 20.584639 -9.757057 -13.057200 5.777900 -9.386900 -73.624643 -5.827574 13.824556 143.238573 -43.644554 -107.299591 1.084315 -0.375079 -57.105684 -7.125000 0.000000 0.000000 69.988846 -14.236604 23.247569 -132.782053 49.268769 -100.909831 -1.739895 2.334310 -28.129349 7.125000 0.000000 0.000000 
25.402333 17.189454 -32.622654 -1.784238 -16.390454 1.702084 -2.490276 -11.045014 0.579073 0.381266 8.706072 26.280928 2.165621 -3.002332 -10.638518 3.932900 -12.070600 -35.982200 13.850260 12.424702 -15.035571 -3.786622 -13.635720 40.892921 -1.943622 1.988206 -15.050048 -0.668800 5.229800 -14.565200 2.107423 -4.364986 -4.333897 2.091530 -1.576848 -7.133009 -4.525670 20.359201 -9.591560 -13.229600 5.557900 -8.206000 -72.998292 -8.154943 14.748488 142.968435 -43.608899 -107.220975 1.119565 -0.369454 -57.378613 -7.125000 0.000000 0.000000 70.608553 -12.238433 21.179520 -133.247669 48.905223 -101.250466 -1.758763 2.348612 -27.746220 7.125000 0.000000 0.000000 
